<svg version="1.1" viewBox="0.0 0.0 468.8503937007874 100.0" fill="none" stroke="none" stroke-linecap="square" stroke-miterlimit="10" xmlns:xlink="http://www.w3.org/1999/xlink" xmlns="http://www.w3.org/2000/svg"><clipPath id="p.0"><path d="m0 0l468.8504 0l0 100.0l-468.8504 0l0 -100.0z" clip-rule="nonzero"/></clipPath><g clip-path="url(#p.0)"><path fill="#000000" fill-opacity="0.0" d="m0 0l468.8504 0l0 100.0l-468.8504 0z" fill-rule="evenodd"/><path fill="#000000" fill-opacity="0.0" d="m0 0l468.8504 0l0 75.937004l-468.8504 0z" fill-rule="evenodd"/><path fill="#d9ead3" d="m36.998306 9.0l363.97797 0l0 56.0l-363.97797 0l0 -56.0z" fill-rule="nonzero"/><path fill="#000000" d="m11.234375 40.51875l20.6875 -11.53125q0.5 -0.265625 0.75 -0.265625q0.390625 0 0.671875 0.28125q0.28125 0.28125 0.28125 0.671875q0 0.5625 -0.765625 1.0l-17.734375 9.84375l17.703125 9.84375q0.78125 0.4375 0.78125 1.0q0 0.390625 -0.296875 0.671875q-0.28125 0.28125 -0.671875 0.28125q-0.25 0 -0.75 -0.265625l-20.65625 -11.53125z" fill-rule="nonzero"/><path fill="#010000" fill-opacity="0.0" d="m36.998306 14.95776l363.97797 0l0 52.852787l-363.97797 0l0 -52.852787z" fill-rule="nonzero"/><path fill="#274e13" d="m57.842056 29.065624l0 -0.640625q0 -0.6875 0.265625 -0.984375q0.265625 -0.296875 0.6875 -0.296875q0.4375 0 0.703125 0.296875q0.265625 0.296875 0.265625 0.984375l0 4.875q0 0.6875 -0.265625 0.984375q-0.265625 0.28125 -0.703125 0.28125q-0.40625 0 -0.671875 -0.265625q-0.25 -0.28125 -0.28125 -0.890625q-0.109375 -1.90625 -1.96875 -3.4375q-1.859375 -1.53125 -4.859375 -1.53125q-3.171875 0 -5.046875 1.640625q-1.859375 1.625 -1.859375 3.828125q0 1.140625 0.515625 2.078125q0.53125 0.9375 1.390625 1.515625q0.875 0.578125 1.96875 0.9375q1.09375 0.34375 3.40625 0.734375q3.90625 0.640625 5.390625 1.296875q1.96875 0.890625 2.984375 2.46875q1.015625 1.5625 1.015625 3.703125q0 3.28125 -2.625 5.59375q-2.609375 2.3125 -7.046875 2.3125q-5.0 0 -7.984375 -3.125l0 1.09375q0 0.6875 -0.265625 0.984375q-0.25 0.296875 -0.6875 0.296875q-0.40625 0 -0.6875 -0.296875q-0.265625 -0.296875 -0.265625 -0.984375l0 -5.28125q0 -0.703125 0.25 -1.0q0.265625 -0.296875 0.703125 -0.296875q0.40625 0 0.671875 0.28125q0.265625 0.265625 0.28125 0.875q0.109375 2.09375 2.234375 3.828125q2.140625 1.71875 5.75 1.71875q3.59375 0 5.671875 -1.796875q2.09375 -1.8125 2.09375 -4.265625q0 -1.5 -0.796875 -2.671875q-0.796875 -1.1875 -2.375 -1.859375q-1.09375 -0.484375 -4.5625 -1.078125q-4.75 -0.796875 -6.84375 -2.4375q-2.109375 -1.640625 -2.109375 -4.671875q0 -3.0 2.40625 -5.15625q2.40625 -2.171875 6.34375 -2.171875q4.015625 0 6.90625 2.53125zm17.217056 5.0l10.390625 0q0.6875 0 0.984375 0.28125q0.296875 0.265625 0.296875 0.703125q0 0.40625 -0.296875 0.6875q-0.296875 0.265625 -0.984375 0.265625l-10.390625 0l0 12.734375q0 1.671875 1.328125 2.796875q1.34375 1.109375 3.921875 1.109375q1.9375 0 4.1875 -0.578125q2.25 -0.59375 3.515625 -1.3125q0.453125 -0.296875 0.75 -0.296875q0.359375 0 0.625 0.28125q0.28125 0.28125 0.28125 0.671875q0 0.34375 -0.296875 0.640625q-0.734375 0.75 -3.546875 1.625q-2.8125 0.875 -5.375 0.875q-3.359375 0 -5.34375 -1.5625q-1.96875 -1.578125 -1.96875 -4.25l0 -12.734375l-3.53125 0q-0.6875 0 -0.984375 -0.265625q-0.296875 -0.28125 -0.296875 -0.703125q0 -0.421875 0.296875 -0.6875q0.296875 -0.28125 0.984375 -0.28125l3.53125 0l0 -5.640625q0 -0.6875 0.265625 -0.984375q0.28125 -0.296875 0.6875 -0.296875q0.421875 0 0.6875 0.296875q0.28125 0.296875 0.28125 0.984375l0 5.640625zm42.29518 10.328125l-19.5 0q0.5 3.703125 3.109375 5.984375q2.609375 2.265625 6.453125 2.265625q2.140625 0 4.484375 -0.703125q2.34375 -0.71875 3.828125 -1.875q0.4375 -0.34375 0.75 -0.34375q0.375 0 0.640625 0.28125q0.28125 0.28125 0.28125 0.671875q0 0.390625 -0.375 0.75q-1.09375 1.140625 -3.890625 2.140625q-2.78125 0.984375 -5.71875 0.984375q-4.921875 0 -8.21875 -3.21875q-3.28125 -3.234375 -3.28125 -7.8125q0 -4.15625 3.078125 -7.140625q3.09375 -2.984375 7.640625 -2.984375q4.703125 0 7.734375 3.0625q3.03125 3.0625 2.984375 7.9375zm-1.9375 -1.9375q-0.578125 -3.171875 -3.0 -5.140625q-2.421875 -1.984375 -5.78125 -1.984375q-3.34375 0 -5.765625 1.953125q-2.40625 1.953125 -3.0 5.171875l17.546875 0zm21.248306 11.34375l-3.234375 0l-7.859375 -17.796875l-1.953125 0q-0.6875 0 -0.984375 -0.265625q-0.296875 -0.28125 -0.296875 -0.703125q0 -0.421875 0.296875 -0.6875q0.296875 -0.28125 0.984375 -0.28125l7.171875 0q0.6875 0 0.984375 0.28125q0.296875 0.265625 0.296875 0.703125q0 0.40625 -0.296875 0.6875q-0.296875 0.265625 -0.984375 0.265625l-3.171875 0l7.015625 15.890625l0.84375 0l6.890625 -15.890625l-3.203125 0q-0.671875 0 -0.96875 -0.265625q-0.296875 -0.28125 -0.296875 -0.703125q0 -0.421875 0.296875 -0.6875q0.296875 -0.28125 0.96875 -0.28125l7.203125 0q0.703125 0 0.984375 0.28125q0.296875 0.265625 0.296875 0.703125q0 0.40625 -0.296875 0.6875q-0.28125 0.265625 -0.984375 0.265625l-1.9375 0l-7.765625 17.796875zm36.685806 -9.40625l-19.5 0q0.5 3.703125 3.109375 5.984375q2.609375 2.265625 6.453125 2.265625q2.140625 0 4.484375 -0.703125q2.34375 -0.71875 3.828125 -1.875q0.4375 -0.34375 0.75 -0.34375q0.375 0 0.640625 0.28125q0.28125 0.28125 0.28125 0.671875q0 0.390625 -0.375 0.75q-1.09375 1.140625 -3.890625 2.140625q-2.78125 0.984375 -5.71875 0.984375q-4.921875 0 -8.21875 -3.21875q-3.28125 -3.234375 -3.28125 -7.8125q0 -4.15625 3.078125 -7.140625q3.09375 -2.984375 7.640625 -2.984375q4.703125 0 7.734375 3.0625q3.03125 3.0625 2.984375 7.9375zm-1.9375 -1.9375q-0.578125 -3.171875 -3.0 -5.140625q-2.421875 -1.984375 -5.78125 -1.984375q-3.34375 0 -5.765625 1.953125q-2.40625 1.953125 -3.0 5.171875l17.546875 0zm13.388931 -8.390625l0 2.90625q2.0 -2.03125 3.609375 -2.796875q1.625 -0.78125 3.65625 -0.78125q2.1875 0 3.984375 0.921875q1.28125 0.6875 2.3125 2.28125q1.046875 1.578125 1.046875 3.234375l0 12.0625l1.609375 0q0.6875 0 0.984375 0.265625q0.296875 0.25 0.296875 0.6875q0 0.40625 -0.296875 0.6875q-0.296875 0.265625 -0.984375 0.265625l-5.125 0q-0.703125 0 -1.0 -0.265625q-0.296875 -0.28125 -0.296875 -0.6875q0 -0.4375 0.296875 -0.6875q0.296875 -0.265625 1.0 -0.265625l1.59375 0l0 -11.734375q0 -2.03125 -1.484375 -3.421875q-1.46875 -1.40625 -3.953125 -1.40625q-1.890625 0 -3.28125 0.765625q-1.390625 0.75 -3.96875 3.78125l0 12.015625l2.171875 0q0.671875 0 0.96875 0.265625q0.296875 0.25 0.296875 0.6875q0 0.40625 -0.296875 0.6875q-0.296875 0.265625 -0.96875 0.265625l-6.25 0q-0.6875 0 -0.984375 -0.265625q-0.296875 -0.28125 -0.296875 -0.6875q0 -0.4375 0.296875 -0.6875q0.296875 -0.265625 0.984375 -0.265625l2.171875 0l0 -15.890625l-1.625 0q-0.6875 0 -0.984375 -0.265625q-0.296875 -0.28125 -0.296875 -0.703125q0 -0.421875 0.296875 -0.6875q0.296875 -0.28125 0.984375 -0.28125l3.53125 0zm71.55911 19.734375l-2.46875 0l-14.09375 -23.859375l0 21.953125l3.53125 0q0.703125 0 1.0 0.265625q0.296875 0.25 0.296875 0.6875q0 0.40625 -0.296875 0.6875q-0.296875 0.265625 -1.0 0.265625l-7.046875 0q-0.703125 0 -1.0 -0.265625q-0.296875 -0.28125 -0.296875 -0.6875q0 -0.4375 0.296875 -0.6875q0.296875 -0.265625 1.0 -0.265625l1.59375 0l0 -22.828125l-2.5625 0q-0.6875 0 -0.984375 -0.265625q-0.296875 -0.265625 -0.296875 -0.703125q0 -0.421875 0.296875 -0.6875q0.296875 -0.265625 0.984375 -0.265625l5.0 0l14.125 23.90625l0 -21.984375l-3.53125 0q-0.671875 0 -0.96875 -0.265625q-0.296875 -0.265625 -0.296875 -0.703125q0 -0.421875 0.28125 -0.6875q0.28125 -0.265625 0.984375 -0.265625l7.0625 0q0.6875 0 0.984375 0.265625q0.296875 0.265625 0.296875 0.6875q0 0.4375 -0.296875 0.703125q-0.296875 0.265625 -0.984375 0.265625l-1.609375 0l0 24.734375zm28.982666 -9.40625l-19.5 0q0.5 3.703125 3.109375 5.984375q2.609375 2.265625 6.453125 2.265625q2.140625 0 4.484375 -0.703125q2.34375 -0.71875 3.828125 -1.875q0.4375 -0.34375 0.75 -0.34375q0.375 0 0.640625 0.28125q0.28125 0.28125 0.28125 0.671875q0 0.390625 -0.375 0.75q-1.09375 1.140625 -3.890625 2.140625q-2.78125 0.984375 -5.71875 0.984375q-4.921875 0 -8.21875 -3.21875q-3.28125 -3.234375 -3.28125 -7.8125q0 -4.15625 3.078125 -7.140625q3.09375 -2.984375 7.640625 -2.984375q4.703125 0 7.734375 3.0625q3.03125 3.0625 2.984375 7.9375zm-1.9375 -1.9375q-0.578125 -3.171875 -3.0 -5.140625q-2.421875 -1.984375 -5.78125 -1.984375q-3.34375 0 -5.765625 1.953125q-2.40625 1.953125 -3.0 5.171875l17.546875 0zm27.560822 -6.453125l0 -0.640625q0 -0.703125 0.265625 -1.0q0.28125 -0.296875 0.6875 -0.296875q0.4375 0 0.703125 0.296875q0.28125 0.296875 0.28125 1.0l0 4.328125q-0.03125 0.71875 -0.296875 1.015625q-0.25 0.296875 -0.6875 0.296875q-0.390625 0 -0.65625 -0.265625q-0.25 -0.265625 -0.296875 -0.875q-0.140625 -1.625 -2.140625 -3.078125q-1.984375 -1.453125 -5.359375 -1.453125q-4.25 0 -6.46875 2.671875q-2.203125 2.65625 -2.203125 6.09375q0 3.71875 2.4375 6.140625q2.4375 2.40625 6.3125 2.40625q2.234375 0 4.546875 -0.8125q2.3125 -0.828125 4.171875 -2.65625q0.484375 -0.453125 0.84375 -0.453125q0.390625 0 0.640625 0.265625q0.265625 0.25 0.265625 0.640625q0 0.984375 -2.296875 2.484375q-3.71875 2.4375 -8.265625 2.4375q-4.625 0 -7.609375 -2.953125q-2.96875 -2.953125 -2.96875 -7.484375q0 -4.625 3.046875 -7.671875q3.046875 -3.046875 7.671875 -3.046875q4.390625 0 7.375 2.609375zm30.701447 7.984375q0 4.375 -3.125 7.46875q-3.125 3.09375 -7.546875 3.09375q-4.46875 0 -7.59375 -3.109375q-3.125 -3.109375 -3.125 -7.453125q0 -4.375 3.125 -7.484375q3.125 -3.109375 7.59375 -3.109375q4.421875 0 7.546875 3.09375q3.125 3.09375 3.125 7.5zm-1.921875 0q0 -3.609375 -2.578125 -6.125q-2.5625 -2.53125 -6.203125 -2.53125q-3.640625 0 -6.203125 2.546875q-2.5625 2.53125 -2.5625 6.109375q0 3.546875 2.5625 6.109375q2.5625 2.546875 6.203125 2.546875q3.640625 0 6.203125 -2.53125q2.578125 -2.546875 2.578125 -6.125zm20.201416 -18.78125l0 26.6875l7.515625 0q0.703125 0 1.0 0.265625q0.296875 0.25 0.296875 0.6875q0 0.40625 -0.296875 0.6875q-0.296875 0.265625 -1.0 0.265625l-16.953125 0q-0.671875 0 -0.96875 -0.265625q-0.296875 -0.28125 -0.296875 -0.6875q0 -0.4375 0.296875 -0.6875q0.296875 -0.265625 0.96875 -0.265625l7.515625 0l0 -24.75l-5.5 0q-0.6875 0 -1.0 -0.265625q-0.3125 -0.28125 -0.3125 -0.71875q0 -0.40625 0.296875 -0.671875q0.296875 -0.28125 1.015625 -0.28125l7.421875 0zm32.52954 28.59375l0 -2.75q-4.171875 3.5 -8.90625 3.5q-3.4375 0 -5.375 -1.734375q-1.9375 -1.75 -1.9375 -4.28125q0 -2.78125 2.546875 -4.84375q2.5625 -2.078125 7.453125 -2.078125q1.328125 0 2.875 0.171875q1.546875 0.171875 3.34375 0.53125l0 -3.09375q0 -1.578125 -1.46875 -2.734375q-1.453125 -1.15625 -4.359375 -1.15625q-2.234375 0 -6.265625 1.296875q-0.734375 0.21875 -0.9375 0.21875q-0.359375 0 -0.625 -0.265625q-0.265625 -0.28125 -0.265625 -0.6875q0 -0.390625 0.234375 -0.609375q0.3125 -0.34375 2.578125 -0.9375q3.546875 -0.953125 5.375 -0.953125q3.609375 0 5.640625 1.796875q2.03125 1.78125 2.03125 4.03125l0 12.671875l2.546875 0q0.703125 0 1.0 0.265625q0.296875 0.25 0.296875 0.6875q0 0.40625 -0.296875 0.6875q-0.296875 0.265625 -1.0 0.265625l-4.484375 0zm0 -9.515625q-1.34375 -0.390625 -2.84375 -0.578125q-1.5 -0.1875 -3.171875 -0.1875q-4.171875 0 -6.515625 1.8125q-1.78125 1.34375 -1.78125 3.203125q0 1.734375 1.359375 2.921875q1.359375 1.1875 3.953125 1.1875q2.484375 0 4.609375 -0.984375q2.140625 -1.0 4.390625 -3.171875l0 -4.203125z" fill-rule="nonzero"/><path fill="#000000" d="m423.57 23.815624l-15.390625 32.984375q-0.390625 0.84375 -1.0 0.84375q-0.390625 0 -0.6875 -0.28125q-0.28125 -0.28125 -0.28125 -0.625q0 -0.265625 0.234375 -0.75l15.375 -32.984375q0.25 -0.53125 0.46875 -0.6875q0.234375 -0.15625 0.5625 -0.15625q0.375 0 0.65625 0.28125q0.296875 0.28125 0.296875 0.625q0 0.25 -0.234375 0.75zm31.170166 16.703125l-20.6875 11.53125q-0.5 0.265625 -0.75 0.265625q-0.390625 0 -0.671875 -0.28125q-0.28125 -0.28125 -0.28125 -0.671875q0 -0.5625 0.765625 -1.0l17.734375 -9.84375l-17.703125 -9.84375q-0.78125 -0.4375 -0.78125 -1.0q0 -0.390625 0.28125 -0.671875q0.296875 -0.28125 0.671875 -0.28125q0.265625 0 0.765625 0.265625l20.65625 11.53125z" fill-rule="nonzero"/></g></svg>